<?xml version="1.0" standalone="no"?>
<!DOCTYPE svg PUBLIC "-//W3C//DTD SVG 20010904//EN"
 "http://www.w3.org/TR/2001/REC-SVG-20010904/DTD/svg10.dtd">
<svg version="1.0" xmlns="http://www.w3.org/2000/svg"
 width="1101.000000pt" height="1221.000000pt" viewBox="0 0 1101.000000 1221.000000"
 preserveAspectRatio="xMidYMid meet">

<g transform="translate(0.000000,1221.000000) scale(0.100000,-0.100000)"
fill="#000000" stroke="none">
<path d="M5452 12200 c-56 -13 -110 -57 -139 -113 -24 -46 -28 -63 -28 -142 0
-79 4 -96 28 -143 50 -94 151 -138 264 -112 108 24 173 117 173 249 0 96 -15
142 -62 196 -56 64 -142 87 -236 65z m134 -59 c51 -31 69 -81 69 -196 0 -78
-4 -108 -19 -139 -39 -79 -136 -102 -199 -46 -42 36 -57 85 -57 185 0 100 15
149 57 185 41 36 101 40 149 11z"/>
<path d="M7263 12043 c-65 -3 -73 -6 -73 -23 0 -17 7 -20 55 -20 l55 0 0 -230
0 -230 45 0 45 0 0 255 0 255 -27 -2 c-16 -1 -61 -4 -100 -5z"/>
<path d="M4763 11543 c-65 -3 -73 -6 -73 -23 0 -17 7 -20 55 -20 l55 0 0 -230
0 -230 45 0 45 0 0 255 0 255 -27 -2 c-16 -1 -61 -4 -100 -5z"/>
<path d="M6525 11284 c-104 -7 -198 -13 -207 -13 -15 -1 -18 -11 -18 -56 l0
-55 135 0 135 0 0 -570 0 -570 115 0 115 0 0 640 0 640 -42 -1 c-24 -1 -128
-8 -233 -15z"/>
<path d="M7372 11010 c-56 -13 -110 -57 -139 -113 -24 -46 -28 -63 -28 -142 0
-79 4 -96 28 -143 50 -94 151 -138 264 -112 108 24 173 117 173 249 0 96 -15
142 -62 196 -56 64 -142 87 -236 65z m134 -59 c51 -31 69 -81 69 -196 0 -78
-4 -108 -19 -139 -39 -79 -136 -102 -199 -46 -42 36 -57 85 -57 185 0 100 15
149 57 185 41 36 101 40 149 11z"/>
<path d="M5053 10655 c-275 -60 -453 -318 -453 -655 0 -399 240 -670 595 -670
167 0 300 53 411 164 126 126 184 286 184 506 0 221 -58 380 -185 507 -82 82
-159 124 -271 148 -85 18 -198 18 -281 0z m285 -145 c142 -62 211 -229 211
-510 0 -349 -105 -521 -330 -538 -165 -12 -287 77 -340 248 -31 101 -44 269
-31 403 23 237 93 358 235 409 70 25 182 20 255 -12z"/>
<path d="M6073 9873 c-65 -3 -73 -6 -73 -23 0 -17 7 -20 55 -20 l55 0 0 -230
0 -230 45 0 45 0 0 255 0 255 -27 -2 c-16 -1 -61 -4 -100 -5z"/>
<path d="M7175 9454 c-104 -7 -198 -13 -207 -13 -15 -1 -18 -11 -18 -56 l0
-55 135 0 135 0 0 -570 0 -570 115 0 115 0 0 640 0 640 -42 -1 c-24 -1 -128
-8 -233 -15z"/>
<path d="M6682 9300 c-56 -13 -110 -57 -139 -113 -24 -46 -28 -63 -28 -142 0
-79 4 -96 28 -143 50 -94 151 -138 264 -112 108 24 173 117 173 249 0 96 -15
142 -62 196 -56 64 -142 87 -236 65z m134 -59 c51 -31 69 -81 69 -196 0 -78
-4 -108 -19 -139 -39 -79 -136 -102 -199 -46 -42 36 -57 85 -57 185 0 100 15
149 57 185 41 36 101 40 149 11z"/>
<path d="M8133 9203 c-65 -3 -73 -6 -73 -23 0 -17 7 -20 55 -20 l55 0 0 -230
0 -230 45 0 45 0 0 255 0 255 -27 -2 c-16 -1 -61 -4 -100 -5z"/>
<path d="M3470 9149 c-265 -22 -458 -85 -655 -213 -93 -61 -242 -218 -296
-311 -89 -153 -152 -347 -183 -565 -35 -246 -56 -695 -56 -1230 0 -773 -48
-1096 -197 -1349 -91 -153 -181 -231 -317 -277 -65 -22 -226 -54 -273 -54 -10
0 -13 -120 -13 -568 l0 -569 105 -17 c296 -48 447 -168 556 -441 104 -261 139
-597 139 -1345 0 -555 25 -986 71 -1215 97 -485 391 -826 801 -930 164 -41
306 -56 581 -62 l257 -6 0 570 0 570 -152 7 c-276 12 -373 42 -467 141 -115
122 -128 191 -141 789 -21 949 -40 1232 -107 1550 -80 388 -250 689 -512 908
l-55 46 130 128 c145 143 212 232 284 375 113 224 182 491 215 839 14 156 37
716 55 1360 10 369 17 425 66 521 32 64 96 129 157 158 66 32 176 49 365 57
l162 7 0 569 0 568 -207 -1 c-115 -1 -255 -6 -313 -10z"/>
<path d="M8500 8592 l0 -569 154 -7 c177 -7 313 -28 373 -57 64 -31 129 -94
158 -153 47 -97 54 -172 70 -761 22 -856 40 -1170 81 -1387 27 -145 81 -339
128 -456 83 -205 160 -317 345 -501 l125 -123 -55 -46 c-235 -197 -394 -457
-489 -800 -83 -297 -104 -563 -130 -1612 -12 -487 -15 -549 -40 -646 -24 -92
-41 -125 -97 -185 -56 -60 -111 -93 -188 -113 -69 -17 -256 -36 -362 -36 l-73
0 0 -571 0 -572 263 6 c385 8 556 38 752 132 398 191 587 495 649 1045 26 232
37 484 46 1140 6 349 14 676 20 725 38 344 135 613 278 777 78 88 207 147 382
174 52 7 101 14 108 14 9 0 12 120 12 569 l0 569 -87 12 c-272 38 -431 144
-538 359 -135 270 -175 581 -175 1386 0 575 -25 1001 -71 1244 -39 200 -109
376 -209 527 -71 106 -216 247 -316 307 -207 123 -491 177 -935 177 l-179 0 0
-568z"/>
<path d="M4963 8963 c-65 -3 -73 -6 -73 -23 0 -17 7 -20 55 -20 l55 0 0 -230
0 -230 45 0 45 0 0 255 0 255 -27 -2 c-16 -1 -61 -4 -100 -5z"/>
<path d="M5793 8835 c-275 -60 -453 -318 -453 -655 0 -148 38 -299 101 -400
l28 -45 -172 -12 c-721 -50 -1224 -137 -1440 -250 -121 -64 -138 -114 -61
-182 210 -184 1270 -321 2502 -321 l252 0 0 -1068 c0 -1200 -4 -1136 73 -1219
63 -69 107 -88 202 -88 94 0 140 20 199 85 77 85 71 -12 74 1215 l2 1101 183
12 c100 7 208 15 239 19 l58 6 2 -749 3 -749 30 -54 c52 -94 133 -141 244
-141 104 0 196 63 243 165 l23 50 3 776 3 777 92 17 c296 57 517 157 517 234
0 18 -25 58 -50 79 -58 50 -241 114 -442 155 l-108 22 0 69 c0 91 -15 138 -63
192 -30 34 -51 48 -94 60 -154 45 -291 -46 -310 -207 -6 -47 -7 -50 -32 -45
-90 18 -636 53 -974 62 -136 4 -246 10 -244 13 37 67 79 173 91 233 20 99 21
276 0 376 -48 240 -218 420 -440 467 -85 18 -198 18 -281 0z m285 -145 c151
-66 220 -247 209 -555 -6 -163 -20 -236 -65 -325 l-28 -55 -244 -6 c-273 -6
-265 -8 -302 64 -73 144 -87 468 -28 658 52 170 165 254 330 246 49 -3 93 -12
128 -27z m1898 -809 c43 -26 65 -80 72 -173 l5 -80 -29 6 c-28 6 -231 35 -246
36 -5 0 -8 21 -8 46 0 110 54 184 133 184 23 0 56 -8 73 -19z"/>
<path d="M4752 8410 c-56 -13 -110 -57 -139 -113 -24 -46 -28 -63 -28 -142 0
-79 4 -96 28 -143 50 -94 151 -138 264 -112 108 24 173 117 173 249 0 96 -15
142 -62 196 -56 64 -142 87 -236 65z m134 -59 c51 -31 69 -81 69 -196 0 -78
-4 -108 -19 -139 -39 -79 -136 -102 -199 -46 -42 36 -57 85 -57 185 0 100 15
149 57 185 41 36 101 40 149 11z"/>
<path d="M1000 7233 c-199 -31 -345 -85 -492 -182 -244 -162 -423 -425 -485
-711 -17 -80 -18 -176 -18 -1765 0 -1589 1 -1685 18 -1765 79 -366 348 -685
690 -819 184 -71 205 -74 637 -77 212 -1 374 0 360 2 -214 37 -344 86 -492
183 -244 162 -423 425 -485 711 -17 80 -18 176 -18 1765 0 1589 1 1685 18
1765 62 286 241 549 485 711 147 97 293 151 492 182 14 2 -135 4 -330 4 -195
0 -366 -2 -380 -4z"/>
</g>
</svg>
