<?xml version="1.0" standalone="no"?>
<!DOCTYPE svg PUBLIC "-//W3C//DTD SVG 20010904//EN"
 "http://www.w3.org/TR/2001/REC-SVG-20010904/DTD/svg10.dtd">
<svg version="1.0" xmlns="http://www.w3.org/2000/svg"
 width="4787.000000pt" height="1973.000000pt" viewBox="0 0 4787.000000 1973.000000"
 preserveAspectRatio="xMidYMid meet">

<g transform="translate(0.000000,1973.000000) scale(0.100000,-0.100000)"
fill="#000000" stroke="none">
<path d="M10792 19720 c-56 -13 -110 -57 -139 -113 -24 -46 -28 -63 -28 -142
0 -79 4 -96 28 -143 50 -94 151 -138 264 -112 108 24 173 117 173 249 0 96
-15 142 -62 196 -56 64 -142 87 -236 65z m134 -59 c51 -31 69 -81 69 -196 0
-78 -4 -108 -19 -139 -39 -79 -136 -102 -199 -46 -42 36 -57 85 -57 185 0 100
15 149 57 185 41 36 101 40 149 11z"/>
<path d="M12603 19563 c-65 -3 -73 -6 -73 -23 0 -17 7 -20 55 -20 l55 0 0
-230 0 -230 45 0 45 0 0 255 0 255 -27 -2 c-16 -1 -61 -4 -100 -5z"/>
<path d="M10103 19063 c-65 -3 -73 -6 -73 -23 0 -17 7 -20 55 -20 l55 0 0
-230 0 -230 45 0 45 0 0 255 0 255 -27 -2 c-16 -1 -61 -4 -100 -5z"/>
<path d="M11865 18804 c-104 -7 -198 -13 -207 -13 -15 -1 -18 -11 -18 -56 l0
-55 135 0 135 0 0 -570 0 -570 115 0 115 0 0 640 0 640 -42 -1 c-24 -1 -128
-8 -233 -15z"/>
<path d="M12712 18530 c-56 -13 -110 -57 -139 -113 -24 -46 -28 -63 -28 -142
0 -79 4 -96 28 -143 50 -94 151 -138 264 -112 108 24 173 117 173 249 0 96
-15 142 -62 196 -56 64 -142 87 -236 65z m134 -59 c51 -31 69 -81 69 -196 0
-78 -4 -108 -19 -139 -39 -79 -136 -102 -199 -46 -42 36 -57 85 -57 185 0 100
15 149 57 185 41 36 101 40 149 11z"/>
<path d="M10393 18175 c-275 -60 -453 -318 -453 -655 0 -399 240 -670 595
-670 167 0 300 53 411 164 126 126 184 286 184 506 0 221 -58 380 -185 507
-82 82 -159 124 -271 148 -85 18 -198 18 -281 0z m285 -145 c142 -62 211 -229
211 -510 0 -349 -105 -521 -330 -538 -165 -12 -287 77 -340 248 -31 101 -44
269 -31 403 23 237 93 358 235 409 70 25 182 20 255 -12z"/>
<path d="M11413 17393 c-65 -3 -73 -6 -73 -23 0 -17 7 -20 55 -20 l55 0 0
-230 0 -230 45 0 45 0 0 255 0 255 -27 -2 c-16 -1 -61 -4 -100 -5z"/>
<path d="M12515 16974 c-104 -7 -198 -13 -207 -13 -15 -1 -18 -11 -18 -56 l0
-55 135 0 135 0 0 -570 0 -570 115 0 115 0 0 640 0 640 -42 -1 c-24 -1 -128
-8 -233 -15z"/>
<path d="M12022 16820 c-56 -13 -110 -57 -139 -113 -24 -46 -28 -63 -28 -142
0 -79 4 -96 28 -143 50 -94 151 -138 264 -112 108 24 173 117 173 249 0 96
-15 142 -62 196 -56 64 -142 87 -236 65z m134 -59 c51 -31 69 -81 69 -196 0
-78 -4 -108 -19 -139 -39 -79 -136 -102 -199 -46 -42 36 -57 85 -57 185 0 100
15 149 57 185 41 36 101 40 149 11z"/>
<path d="M13473 16723 c-65 -3 -73 -6 -73 -23 0 -17 7 -20 55 -20 l55 0 0
-230 0 -230 45 0 45 0 0 255 0 255 -27 -2 c-16 -1 -61 -4 -100 -5z"/>
<path d="M8810 16669 c-265 -22 -458 -85 -655 -213 -93 -61 -242 -218 -296
-311 -89 -153 -152 -347 -183 -565 -35 -246 -56 -695 -56 -1230 0 -773 -48
-1096 -197 -1349 -91 -153 -181 -231 -317 -277 -65 -22 -226 -54 -273 -54 -10
0 -13 -120 -13 -568 l0 -569 105 -17 c296 -48 447 -168 556 -441 104 -261 139
-597 139 -1345 0 -555 25 -986 71 -1215 97 -485 391 -826 801 -930 164 -41
306 -56 581 -62 l257 -6 0 570 0 570 -152 7 c-276 12 -373 42 -467 141 -115
122 -128 191 -141 789 -21 949 -40 1232 -107 1550 -80 388 -250 689 -512 908
l-55 46 130 128 c145 143 212 232 284 375 113 224 182 491 215 839 14 156 37
716 55 1360 10 369 17 425 66 521 32 64 96 129 157 158 66 32 176 49 365 57
l162 7 0 569 0 568 -207 -1 c-115 -1 -255 -6 -313 -10z"/>
<path d="M13840 16112 l0 -569 154 -7 c177 -7 313 -28 373 -57 64 -31 129 -94
158 -153 47 -97 54 -172 70 -761 22 -856 40 -1170 81 -1387 27 -145 81 -339
128 -456 83 -205 160 -317 345 -501 l125 -123 -55 -46 c-235 -197 -394 -457
-489 -800 -83 -297 -104 -563 -130 -1612 -12 -487 -15 -549 -40 -646 -24 -92
-41 -125 -97 -185 -56 -60 -111 -93 -188 -113 -69 -17 -256 -36 -362 -36 l-73
0 0 -571 0 -572 263 6 c385 8 556 38 752 132 398 191 587 495 649 1045 26 232
37 484 46 1140 6 349 14 676 20 725 38 344 135 613 278 777 78 88 207 147 382
174 52 7 101 14 108 14 9 0 12 120 12 569 l0 569 -87 12 c-272 38 -431 144
-538 359 -135 270 -175 581 -175 1386 0 575 -25 1001 -71 1244 -39 200 -109
376 -209 527 -71 106 -216 247 -316 307 -207 123 -491 177 -935 177 l-179 0 0
-568z"/>
<path d="M10303 16483 c-65 -3 -73 -6 -73 -23 0 -17 7 -20 55 -20 l55 0 0
-230 0 -230 45 0 45 0 0 255 0 255 -27 -2 c-16 -1 -61 -4 -100 -5z"/>
<path d="M19470 14700 l0 -1740 125 0 125 0 0 125 c0 115 7 145 26 114 3 -6
43 -38 88 -71 233 -174 573 -261 836 -214 367 66 661 382 774 833 43 173 51
245 50 483 -1 258 -18 380 -80 570 -111 346 -309 555 -611 646 -79 24 -104 27
-243 27 -128 0 -169 -3 -233 -21 -210 -58 -424 -201 -570 -382 l-37 -45 0 708
0 707 -125 0 -125 0 0 -1740z m1240 506 c258 -71 433 -286 500 -617 42 -203
42 -556 1 -757 -45 -217 -116 -359 -245 -488 -95 -95 -203 -154 -328 -179
-288 -57 -560 44 -850 317 l-68 63 0 582 0 582 79 98 c183 228 375 366 566
407 84 19 262 14 345 -8z"/>
<path d="M24260 16240 l0 -200 125 0 125 0 0 200 0 200 -125 0 -125 0 0 -200z"/>
<path d="M11133 16355 c-275 -60 -453 -318 -453 -655 0 -148 38 -299 101 -400
l28 -45 -172 -12 c-721 -50 -1224 -137 -1440 -250 -121 -64 -138 -114 -61
-182 210 -184 1270 -321 2502 -321 l252 0 0 -1068 c0 -1200 -4 -1136 73 -1219
63 -69 107 -88 202 -88 94 0 140 20 199 85 77 85 71 -12 74 1215 l2 1101 183
12 c100 7 208 15 239 19 l58 6 2 -749 3 -749 30 -54 c52 -94 133 -141 244
-141 104 0 196 63 243 165 l23 50 3 776 3 777 92 17 c296 57 517 157 517 234
0 18 -25 58 -50 79 -58 50 -241 114 -442 155 l-108 22 0 69 c0 91 -15 138 -63
192 -30 34 -51 48 -94 60 -154 45 -291 -46 -310 -207 -6 -47 -7 -50 -32 -45
-90 18 -636 53 -974 62 -136 4 -246 10 -244 13 37 67 79 173 91 233 20 99 21
276 0 376 -48 240 -218 420 -440 467 -85 18 -198 18 -281 0z m285 -145 c151
-66 220 -247 209 -555 -6 -163 -20 -236 -65 -325 l-28 -55 -244 -6 c-273 -6
-265 -8 -302 64 -73 144 -87 468 -28 658 52 170 165 254 330 246 49 -3 93 -12
128 -27z m1898 -809 c43 -26 65 -80 72 -173 l5 -80 -29 6 c-28 6 -231 35 -246
36 -5 0 -8 21 -8 46 0 110 54 184 133 184 23 0 56 -8 73 -19z"/>
<path d="M10092 15930 c-56 -13 -110 -57 -139 -113 -24 -46 -28 -63 -28 -142
0 -79 4 -96 28 -143 50 -94 151 -138 264 -112 108 24 173 117 173 249 0 96
-15 142 -62 196 -56 64 -142 87 -236 65z m134 -59 c51 -31 69 -81 69 -196 0
-78 -4 -108 -19 -139 -39 -79 -136 -102 -199 -46 -42 36 -57 85 -57 185 0 100
15 149 57 185 41 36 101 40 149 11z"/>
<path d="M28345 15470 c-223 -31 -416 -133 -602 -316 l-93 -92 0 179 0 179
-125 0 -125 0 0 -1230 0 -1230 125 0 125 0 0 903 0 902 118 115 c175 171 352
284 507 325 93 25 236 30 340 12 214 -38 335 -149 392 -359 15 -57 17 -153 20
-980 l4 -918 129 0 130 0 0 849 c0 516 -4 889 -10 950 -40 384 -207 613 -507
692 -88 24 -323 34 -428 19z"/>
<path d="M32920 15474 c-102 -12 -234 -40 -307 -64 -260 -87 -426 -290 -468
-574 l-7 -46 124 0 125 0 17 61 c62 225 223 336 535 370 125 14 336 6 434 -15
138 -30 258 -105 319 -198 66 -101 90 -195 104 -415 l7 -113 -179 0 c-694 0
-1086 -104 -1339 -355 -152 -150 -215 -306 -215 -530 0 -208 52 -337 190 -476
97 -97 172 -141 315 -185 84 -26 102 -28 270 -28 202 0 297 14 443 66 157 55
287 129 435 246 l77 62 0 -160 0 -160 125 0 125 0 0 868 c0 520 -4 895 -10
937 -56 390 -253 607 -625 687 -87 19 -403 33 -495 22z m880 -1564 l0 -320
-67 -67 c-183 -179 -375 -295 -578 -349 -102 -28 -338 -25 -450 5 -297 79
-434 286 -370 559 47 199 206 340 469 416 185 54 371 72 764 75 l232 1 0 -320z"/>
<path d="M37827 15464 c-177 -32 -352 -130 -514 -288 l-93 -91 0 168 0 167
-125 0 -125 0 0 -1230 0 -1230 125 0 125 0 0 881 0 881 53 76 c67 99 212 244
304 305 151 100 253 131 421 125 l103 -3 -3 125 -3 125 -95 2 c-52 1 -130 -5
-173 -13z"/>
<path d="M24250 14190 l0 -1230 130 0 130 0 0 1230 0 1230 -130 0 -130 0 0
-1230z"/>
<path d="M40420 15416 c0 -3 209 -561 465 -1241 l465 -1236 -35 -90 c-152
-395 -339 -558 -637 -559 l-88 0 0 -134 0 -134 77 -8 c96 -9 233 1 296 20 137
43 291 171 392 326 57 88 165 311 223 460 33 86 712 1980 883 2463 l48 137
-138 0 -138 0 -368 -1070 c-202 -589 -369 -1069 -370 -1068 -1 2 -181 483
-400 1071 l-398 1067 -139 0 c-76 0 -138 -2 -138 -4z"/>
<path d="M6340 14753 c-199 -31 -345 -85 -492 -182 -244 -162 -423 -425 -485
-711 -17 -80 -18 -176 -18 -1765 0 -1589 1 -1685 18 -1765 79 -366 348 -685
690 -819 184 -71 205 -74 637 -77 212 -1 374 0 360 2 -214 37 -344 86 -492
183 -244 162 -423 425 -485 711 -17 80 -18 176 -18 1765 0 1589 1 1685 18
1765 62 286 241 549 485 711 147 97 293 151 492 182 14 2 -135 4 -330 4 -195
0 -366 -2 -380 -4z"/>
<path d="M29276 11294 c-186 -40 -315 -155 -384 -343 -43 -120 -53 -193 -59
-448 l-5 -243 -189 0 -189 0 0 -125 0 -125 190 0 190 0 0 -1105 0 -1105 130 0
130 0 0 1105 0 1105 230 0 230 0 0 125 0 125 -230 0 -230 0 0 218 c0 184 3
231 19 295 24 93 41 126 86 172 74 74 165 103 348 112 l127 6 0 117 0 117 -61
7 c-101 10 -259 5 -333 -10z"/>
<path d="M32706 11294 c-186 -40 -315 -155 -384 -343 -43 -120 -53 -193 -59
-448 l-5 -243 -189 0 -189 0 0 -125 0 -125 190 0 190 0 0 -1105 0 -1105 130 0
130 0 0 1105 0 1105 230 0 230 0 0 125 0 125 -230 0 -230 0 0 218 c0 184 3
231 19 295 24 93 41 126 86 172 74 74 165 103 348 112 l127 6 0 117 0 117 -61
7 c-101 10 -259 5 -333 -10z"/>
<path d="M20226 10309 c-352 -51 -627 -257 -781 -582 -88 -186 -125 -363 -132
-630 -6 -222 7 -364 47 -523 112 -434 373 -705 778 -806 119 -30 387 -32 507
-4 264 61 464 207 577 422 36 68 98 240 98 270 0 2 -56 4 -124 4 l-124 0 -11
-52 c-28 -128 -133 -256 -270 -327 -127 -66 -209 -84 -386 -85 -178 -1 -242
13 -385 81 -82 39 -108 59 -186 137 -78 78 -98 106 -142 194 -97 195 -126 337
-126 622 0 286 29 428 126 622 44 87 65 117 142 194 79 79 104 98 186 137 142
68 207 82 385 81 175 0 245 -14 373 -76 145 -68 252 -200 282 -343 l11 -55
124 0 125 0 -7 33 c-13 71 -62 200 -104 273 -127 223 -342 363 -624 409 -97
16 -264 18 -359 4z"/>
<path d="M24715 10309 c-467 -68 -780 -385 -885 -894 -47 -229 -47 -535 0
-767 122 -596 539 -933 1119 -905 273 13 487 99 661 264 203 193 323 457 361
793 17 151 6 477 -20 604 -108 526 -418 839 -896 905 -88 13 -253 12 -340 0z
m395 -264 c36 -9 108 -37 160 -62 81 -39 107 -58 185 -137 96 -97 158 -199
205 -336 80 -236 91 -606 25 -866 -48 -187 -119 -319 -240 -440 -68 -68 -97
-89 -176 -127 -116 -56 -195 -76 -325 -84 -451 -27 -763 228 -864 704 -27 128
-37 398 -21 542 54 462 282 744 659 816 97 18 301 13 392 -10z"/>
<path d="M36356 10310 c-312 -49 -578 -230 -735 -498 -175 -300 -233 -748
-150 -1157 115 -567 535 -915 1104 -915 485 0 863 255 974 658 l20 72 -128 0
-128 0 -6 -41 c-19 -146 -180 -305 -379 -377 -127 -45 -206 -57 -368 -56 -127
1 -156 5 -235 28 -361 109 -583 417 -630 879 l-7 67 967 0 968 0 -6 168 c-16
431 -166 768 -437 977 -109 84 -252 148 -404 181 -84 19 -336 27 -420 14z
m329 -255 c224 -39 419 -178 534 -380 51 -89 113 -264 134 -377 l15 -78 -840
0 -840 0 7 43 c24 152 87 325 162 446 58 94 168 203 254 254 157 92 373 127
574 92z"/>
<path d="M41136 10310 c-312 -49 -578 -230 -735 -498 -175 -300 -233 -748
-150 -1157 115 -567 535 -915 1104 -915 485 0 863 255 974 658 l20 72 -128 0
-128 0 -6 -41 c-19 -146 -180 -305 -379 -377 -127 -45 -206 -57 -368 -56 -127
1 -156 5 -235 28 -361 109 -583 417 -630 879 l-7 67 967 0 968 0 -6 168 c-16
431 -166 768 -437 977 -109 84 -252 148 -404 181 -84 19 -336 27 -420 14z
m329 -255 c224 -39 419 -178 534 -380 51 -89 113 -264 134 -377 l15 -78 -840
0 -840 0 7 43 c24 152 87 325 162 446 58 94 168 203 254 254 157 92 373 127
574 92z"/>
<path d="M0 3015 l0 -55 460 0 460 0 0 55 0 55 -460 0 -460 0 0 -55z"/>
<path d="M1930 3015 l0 -55 470 0 470 0 0 55 0 55 -470 0 -470 0 0 -55z"/>
<path d="M3890 3015 l0 -55 470 0 470 0 0 55 0 55 -470 0 -470 0 0 -55z"/>
<path d="M5840 3015 l0 -55 470 0 470 0 0 55 0 55 -470 0 -470 0 0 -55z"/>
<path d="M7800 3015 l0 -55 470 0 470 0 0 55 0 55 -470 0 -470 0 0 -55z"/>
<path d="M9760 3015 l0 -55 470 0 470 0 0 55 0 55 -470 0 -470 0 0 -55z"/>
<path d="M11710 3015 l0 -55 470 0 470 0 0 55 0 55 -470 0 -470 0 0 -55z"/>
<path d="M13670 3015 l0 -55 470 0 470 0 0 55 0 55 -470 0 -470 0 0 -55z"/>
<path d="M15630 3015 l0 -55 470 0 470 0 0 55 0 55 -470 0 -470 0 0 -55z"/>
<path d="M17580 3015 l0 -55 470 0 470 0 0 55 0 55 -470 0 -470 0 0 -55z"/>
<path d="M19540 3015 l0 -55 470 0 470 0 0 55 0 55 -470 0 -470 0 0 -55z"/>
<path d="M21490 3015 l0 -55 470 0 470 0 0 55 0 55 -470 0 -470 0 0 -55z"/>
<path d="M23450 3015 l0 -55 470 0 470 0 0 55 0 55 -470 0 -470 0 0 -55z"/>
<path d="M25410 3015 l0 -55 470 0 470 0 0 55 0 55 -470 0 -470 0 0 -55z"/>
<path d="M27360 3015 l0 -55 470 0 470 0 0 55 0 55 -470 0 -470 0 0 -55z"/>
<path d="M29320 3015 l0 -55 470 0 470 0 0 55 0 55 -470 0 -470 0 0 -55z"/>
<path d="M31270 3015 l0 -55 470 0 470 0 0 55 0 55 -470 0 -470 0 0 -55z"/>
<path d="M33230 3015 l0 -55 470 0 470 0 0 55 0 55 -470 0 -470 0 0 -55z"/>
<path d="M35190 3015 l0 -55 470 0 470 0 0 55 0 55 -470 0 -470 0 0 -55z"/>
<path d="M37140 3015 l0 -55 470 0 470 0 0 55 0 55 -470 0 -470 0 0 -55z"/>
<path d="M39100 3015 l0 -55 470 0 470 0 0 55 0 55 -470 0 -470 0 0 -55z"/>
<path d="M41050 3015 l0 -55 470 0 470 0 0 55 0 55 -470 0 -470 0 0 -55z"/>
<path d="M43010 3015 l0 -55 470 0 470 0 0 55 0 55 -470 0 -470 0 0 -55z"/>
<path d="M44970 3015 l0 -55 470 0 470 0 0 55 0 55 -470 0 -470 0 0 -55z"/>
<path d="M46920 3015 l0 -55 470 0 470 0 0 55 0 55 -470 0 -470 0 0 -55z"/>
<path d="M6920 1510 l0 -249 -72 39 c-92 48 -161 69 -263 76 -324 25 -544
-184 -545 -517 0 -160 51 -300 140 -383 87 -81 187 -116 333 -116 140 0 237
31 344 111 29 22 55 39 58 39 3 0 5 -29 5 -65 l0 -65 60 0 60 0 0 690 0 690
-60 0 -60 0 0 -250z m-187 -259 c32 -13 86 -41 120 -64 l62 -42 3 -246 2 -247
-65 -60 c-119 -109 -262 -157 -400 -133 -130 23 -223 96 -266 210 -30 78 -37
243 -16 328 38 145 110 230 232 270 64 21 256 11 328 -16z"/>
<path d="M9300 1685 l0 -75 60 0 60 0 0 75 0 75 -60 0 -60 0 0 -75z"/>
<path d="M12210 1070 l0 -690 60 0 60 0 0 198 0 199 95 74 c53 41 99 75 103
77 4 1 106 -121 227 -272 l220 -275 73 0 c39 -1 72 1 72 4 0 3 -111 139 -246
302 -136 163 -247 302 -248 308 -1 7 96 88 214 180 118 91 219 171 225 176 5
5 -21 9 -67 9 l-76 0 -294 -230 -293 -229 -3 429 -2 430 -60 0 -60 0 0 -690z"/>
<path d="M20230 1510 l0 -249 -72 39 c-92 48 -161 69 -263 76 -324 25 -544
-184 -545 -517 0 -160 51 -300 140 -383 87 -81 187 -116 333 -116 140 0 237
31 344 111 29 22 55 39 58 39 3 0 5 -29 5 -65 l0 -65 60 0 60 0 0 690 0 690
-60 0 -60 0 0 -250z m-187 -259 c32 -13 86 -41 120 -64 l62 -42 3 -246 2 -247
-65 -60 c-119 -109 -262 -157 -400 -133 -130 23 -223 96 -266 210 -30 78 -37
243 -16 328 38 145 110 230 232 270 64 21 256 11 328 -16z"/>
<path d="M35780 1070 l0 -690 60 0 60 0 0 359 0 359 58 47 c31 25 95 65 141
88 77 39 90 42 181 45 150 6 227 -25 273 -111 21 -41 22 -52 25 -414 l3 -373
60 0 60 0 -3 383 c-3 374 -3 383 -26 432 -64 140 -220 205 -424 178 -111 -15
-183 -43 -273 -108 l-75 -54 0 274 0 275 -60 0 -60 0 0 -690z"/>
<path d="M8354 1365 c-72 -16 -153 -54 -211 -101 -23 -19 -46 -34 -52 -34 -7
0 -11 24 -11 60 l0 60 -60 0 -60 0 0 -485 0 -485 60 0 60 0 0 351 0 351 58 57
c32 31 91 74 132 96 67 35 84 39 163 43 l87 4 0 49 0 49 -52 -1 c-29 0 -80 -7
-114 -14z"/>
<path d="M10795 1373 c-98 -13 -201 -58 -283 -122 l-52 -41 0 70 0 70 -60 0
-60 0 0 -485 0 -485 60 0 60 0 0 359 0 358 58 45 c126 99 227 138 358 138 134
0 204 -34 250 -120 17 -32 19 -66 22 -407 l3 -373 60 0 60 0 -3 383 c-3 374
-3 383 -26 432 -66 143 -227 207 -447 178z"/>
<path d="M16205 1369 c-207 -35 -343 -150 -399 -338 -20 -68 -21 -245 -2 -317
60 -225 249 -354 521 -354 202 0 356 74 419 203 37 72 35 77 -27 77 -53 0 -53
0 -75 -45 -42 -86 -163 -139 -317 -139 -290 0 -447 183 -414 482 16 147 100
263 227 314 50 20 74 23 192 23 125 0 139 -2 190 -26 63 -30 107 -70 127 -116
13 -32 16 -33 69 -33 l56 0 -6 28 c-12 48 -76 130 -130 165 -114 75 -272 103
-431 76z"/>
<path d="M17925 1373 c-106 -14 -215 -64 -288 -131 -59 -55 -85 -95 -117 -177
-21 -53 -24 -76 -24 -195 0 -153 15 -207 80 -305 87 -132 247 -205 448 -205
180 1 314 50 409 149 96 100 131 198 131 361 0 218 -88 371 -259 451 -99 47
-257 68 -380 52z m246 -109 c78 -23 119 -47 167 -94 147 -148 146 -457 -3
-605 -116 -116 -344 -146 -517 -68 -75 33 -149 112 -178 191 -28 71 -37 213
-21 294 30 142 126 246 261 282 75 20 223 20 291 0z"/>
<path d="M21595 1363 c-199 -42 -336 -171 -380 -355 -30 -127 -13 -283 41
-390 59 -116 193 -212 342 -243 86 -19 238 -19 325 0 157 33 271 120 317 240
9 25 9 25 -49 25 -56 0 -59 -2 -71 -30 -44 -106 -248 -178 -432 -152 -204 29
-334 153 -363 345 l-7 47 482 0 483 0 -7 72 c-14 141 -65 250 -154 328 -123
109 -335 154 -527 113z m297 -104 c134 -45 234 -154 254 -278 l7 -41 -418 0
-417 0 6 33 c12 58 63 154 105 196 44 44 119 86 178 100 74 18 219 13 285 -10z"/>
<path d="M25385 1363 c-199 -42 -336 -171 -380 -355 -30 -127 -13 -283 41
-390 59 -116 193 -212 342 -243 86 -19 238 -19 325 0 157 33 271 120 317 240
9 25 9 25 -49 25 -56 0 -59 -2 -71 -30 -44 -106 -248 -178 -432 -152 -204 29
-334 153 -363 345 l-7 47 482 0 483 0 -7 72 c-14 141 -65 250 -154 328 -123
109 -335 154 -527 113z m297 -104 c134 -45 234 -154 254 -278 l7 -41 -418 0
-417 0 6 33 c12 58 63 154 105 196 44 44 119 86 178 100 74 18 219 13 285 -10z"/>
<path d="M28955 1363 c-199 -42 -336 -171 -380 -355 -30 -127 -13 -283 41
-390 59 -116 193 -212 342 -243 86 -19 238 -19 325 0 157 33 271 120 317 240
9 25 9 25 -49 25 -56 0 -59 -2 -71 -30 -44 -106 -248 -178 -432 -152 -204 29
-334 153 -363 345 l-7 47 482 0 483 0 -7 72 c-14 141 -65 250 -154 328 -123
109 -335 154 -527 113z m297 -104 c134 -45 234 -154 254 -278 l7 -41 -418 0
-417 0 6 33 c12 58 63 154 105 196 44 44 119 86 178 100 74 18 219 13 285 -10z"/>
<path d="M30874 1365 c-72 -16 -153 -54 -211 -101 -23 -19 -46 -34 -52 -34 -7
0 -11 24 -11 60 l0 60 -60 0 -60 0 0 -485 0 -485 60 0 60 0 0 351 0 351 58 57
c32 31 91 74 132 96 67 35 84 39 163 43 l87 4 0 49 0 49 -52 -1 c-29 0 -80 -7
-114 -14z"/>
<path d="M37945 1363 c-199 -42 -336 -171 -380 -355 -30 -127 -13 -283 41
-390 59 -116 193 -212 342 -243 86 -19 238 -19 325 0 157 33 271 120 317 240
9 25 9 25 -49 25 -56 0 -59 -2 -71 -30 -44 -106 -248 -178 -432 -152 -204 29
-334 153 -363 345 l-7 47 482 0 483 0 -7 72 c-14 141 -65 250 -154 328 -123
109 -335 154 -527 113z m297 -104 c134 -45 234 -154 254 -278 l7 -41 -418 0
-417 0 6 33 c12 58 63 154 105 196 44 44 119 86 178 100 74 18 219 13 285 -10z"/>
<path d="M39874 1365 c-72 -16 -153 -54 -211 -101 -23 -19 -46 -34 -52 -34 -7
0 -11 24 -11 60 l0 60 -60 0 -60 0 0 -485 0 -485 60 0 60 0 0 351 0 351 58 57
c32 31 91 74 132 96 67 35 84 39 163 43 l87 4 0 49 0 49 -52 -1 c-29 0 -80 -7
-114 -14z"/>
<path d="M41125 1363 c-199 -42 -336 -171 -380 -355 -30 -127 -13 -283 41
-390 59 -116 193 -212 342 -243 86 -19 238 -19 325 0 157 33 271 120 317 240
9 25 9 25 -49 25 -56 0 -59 -2 -71 -30 -44 -106 -248 -178 -432 -152 -204 29
-334 153 -363 345 l-7 47 482 0 483 0 -7 72 c-14 141 -65 250 -154 328 -123
109 -335 154 -527 113z m297 -104 c134 -45 234 -154 254 -278 l7 -41 -418 0
-417 0 6 33 c12 58 63 154 105 196 44 44 119 86 178 100 74 18 219 13 285 -10z"/>
<path d="M9300 865 l0 -485 60 0 60 0 0 485 0 485 -60 0 -60 0 0 -485z"/>
<path d="M26801 1342 c2 -5 105 -223 229 -485 l225 -476 55 -1 55 0 225 476
c124 261 227 479 228 485 2 5 -23 9 -55 9 l-59 0 -195 -415 c-107 -228 -196
-415 -199 -415 -3 1 -91 186 -197 413 l-192 412 -61 3 c-35 2 -60 -1 -59 -6z"/>
<path d="M31693 1338 c3 -7 107 -228 231 -492 l226 -479 -34 -61 c-68 -122
-152 -179 -278 -192 l-68 -7 0 -49 0 -50 98 4 c71 3 110 10 145 26 64 28 152
120 200 208 29 52 465 1016 494 1091 4 10 -10 13 -59 13 l-65 0 -179 -420
c-98 -231 -182 -420 -185 -420 -4 0 -94 188 -201 418 l-195 417 -68 3 c-52 2
-66 0 -62 -10z"/>
<path d="M33399 1298 c11 -29 85 -235 166 -458 81 -223 152 -417 157 -432 10
-27 12 -28 86 -28 l77 0 149 411 c95 260 152 405 157 396 7 -11 206 -528 291
-754 l19 -53 77 0 77 0 165 472 c91 259 166 477 168 485 3 11 -10 13 -63 11
l-67 -3 -137 -402 c-75 -221 -138 -404 -141 -407 -3 -2 -75 180 -160 405
l-155 410 -79 -3 -80 -3 -146 -402 c-80 -221 -148 -405 -151 -407 -2 -3 -69
179 -149 405 l-144 409 -67 0 -68 0 18 -52z"/>
</g>
</svg>
